<svg xmlns="http://www.w3.org/2000/svg" version="1.1" xmlns:xlink="http://www.w3.org/1999/xlink" xmlns:svgjs="http://svgjs.dev/svgjs" width="208" height="190"><svg version="1.1" xmlns="http://www.w3.org/2000/svg" width="208" height="190">
<path d="M0 0 C3.82578521 2.21641431 6.74072711 4.81620516 8.2421875 9.0390625 C9.27830004 15.73847197 8.05015693 20.48741248 4.7265625 26.32421875 C2.97653888 28.34595656 1.84960089 28.67692175 -0.7578125 29.0390625 C-0.57863281 28.24242188 -0.39945312 27.44578125 -0.21484375 26.625 C1.17442004 20.05490204 1.17442004 20.05490204 0.1796875 13.5390625 C-2.68008068 9.84903904 -5.30881811 7.52206063 -9.7578125 6.0390625 C-17.0430742 5.3806907 -23.85461417 5.25690424 -29.7578125 10.0390625 C-32.97556572 13.48534933 -34.02895638 17.07233521 -34.3203125 21.7265625 C-33.79332741 32.96324448 -27.0024316 42.14915336 -20.7578125 51.0390625 C-9.81320352 66.79318133 -3.22765689 79.39006435 -4.7578125 99.0390625 C-6.31835759 107.28464535 -11.43568648 113.70811725 -17.7578125 119.0390625 C-28.26616794 125.8633483 -38.60763054 128.39931793 -51.0078125 128.4140625 C-52.07644531 128.43855469 -53.14507812 128.46304688 -54.24609375 128.48828125 C-65.02674541 128.52757889 -74.90709528 125.74165298 -82.7578125 118.0390625 C-87.11702189 112.76746044 -88.17986734 106.71758535 -87.57421875 100.00390625 C-86.27679942 93.27605138 -82.4872783 87.13376881 -77.0703125 82.9765625 C-74.7578125 82.0390625 -74.7578125 82.0390625 -71.7578125 82.0390625 C-72.33464912 85.93270967 -74.30603027 88.05095291 -76.7578125 91.0390625 C-78.77100112 97.07862837 -78.38404948 102.39428113 -75.8203125 108.2265625 C-71.88741289 115.32120494 -66.02441702 118.54080755 -58.4453125 120.9140625 C-47.0940856 123.56636587 -34.78203515 122.6150304 -24.3203125 117.2890625 C-18.49047708 112.17018261 -14.22399444 107.4751517 -13.38671875 99.5078125 C-13.13513575 84.47202878 -18.01042908 74.21341724 -26.7578125 62.0390625 C-36.12370482 48.90709559 -43.11718653 38.65788866 -41.7578125 22.0390625 C-39.82979068 14.0625608 -35.94138829 8.0387329 -29.30078125 3.27734375 C-20.54417637 -1.86162136 -9.74255708 -3.39471536 0 0 Z " fill="#AA5B68" transform="translate(115.7578125,22.9609375)"></path>
<path d="M0 0 C0.70125 -0.02578125 1.4025 -0.0515625 2.125 -0.078125 C2.74375 0.03015625 3.3625 0.1384375 4 0.25 C6.50158628 4.00237942 6.60559999 6.90986674 6 11.25 C3.99797096 18.02902238 -0.19247897 21.52867584 -6 25.25 C-3.12216715 34.80198673 -3.12216715 34.80198673 2 43.25 C5.71649555 42.01116815 6.17461632 40.80649926 8.25 37.5625 C15.45037501 27.0632084 15.45037501 27.0632084 21.3359375 25.71484375 C23.75565812 25.56214293 25.66054219 25.6149376 28 26.25 C30.52623559 29.08244597 31 30.46564776 31 34.25 C28.53302573 33.68069824 26.40879472 32.99842328 24.0625 32 C21.07535446 30.96978027 21.07535446 30.96978027 18.5625 32.125 C14.01524755 35.89589228 10.27173435 40.34239847 7 45.25 C7 46.24 7 47.23 7 48.25 C13.87568372 51.59453926 18.44947999 52.71139097 26 51.25 C26 50.59 26 49.93 26 49.25 C26.99 49.25 27.98 49.25 29 49.25 C28.68327044 52.20614258 28.0221422 53.22798013 25.87890625 55.359375 C20.73657075 58.73643115 14.9332879 57.97540775 9 57.25 C6.70703125 56.2734375 6.70703125 56.2734375 4.9375 55.125 C3.968125 54.50625 2.99875 53.8875 2 53.25 C-0.69033242 53.8756587 -2.41379726 54.89118083 -4.7421875 56.31640625 C-7.72217207 57.5486144 -10.2197924 57.55134032 -13.4375 57.5625 C-14.54996094 57.57925781 -15.66242188 57.59601563 -16.80859375 57.61328125 C-21.28692881 57.10350749 -23.9090414 55.5290549 -26.8125 52.125 C-29.05002047 46.70784518 -28.66288568 42.08082712 -26.6875 36.625 C-24.56183438 33.22237774 -21.71193075 31.8489135 -18.25 29.9375 C-14.260485 27.7535526 -14.260485 27.7535526 -12.35546875 23.90234375 C-12.40438488 21.36294658 -12.40438488 21.36294658 -12.7265625 18.8046875 C-13.23144652 14.08762822 -12.37494054 9.42432458 -9.82421875 5.390625 C-6.7654481 1.60099765 -4.79156144 0.10569621 0 0 Z M-6.65625 5.8125 C-8.49728711 9.15205568 -8.29268248 11.71343055 -8.1875 15.5 C-8.16042969 16.76328125 -8.13335937 18.0265625 -8.10546875 19.328125 C-8.07066406 20.29234375 -8.03585938 21.2565625 -8 22.25 C-3.83008262 20.36509065 -1.6703706 18.00295328 1 14.25 C2.01235272 10.87549093 2.35882309 9.15901849 1.0625 5.875 C0.711875 5.33875 0.36125 4.8025 0 4.25 C-3.69696907 3.81556206 -3.69696907 3.81556206 -6.65625 5.8125 Z M-17.0625 32.625 C-17.77535156 33.25148438 -18.48820313 33.87796875 -19.22265625 34.5234375 C-21.88361458 37.10836845 -22.21717512 38.95073829 -22.375 42.5625 C-22.35031361 46.39506165 -22.13918768 47.07418398 -19.625 50.25 C-16.35635199 52.74039848 -14.72037808 53.41866464 -10.6875 53.5 C-9.92824219 53.52578125 -9.16898438 53.5515625 -8.38671875 53.578125 C-5.38641454 53.16564455 -3.49026506 51.92486854 -1 50.25 C-1.58007812 49.35861328 -1.58007812 49.35861328 -2.171875 48.44921875 C-6.04826717 42.27961437 -8.76130024 36.17680043 -11 29.25 C-13.91144928 29.25 -14.91747973 30.71745022 -17.0625 32.625 Z " fill="#AA5B68" transform="translate(153,24.75)"></path>
<path d="M0 0 C0.99128906 -0.00257812 1.98257813 -0.00515625 3.00390625 -0.0078125 C5.4375 0.125 5.4375 0.125 6.4375 1.125 C6.70043056 5.15660191 6.73154844 6.68392734 4.4375 10.125 C3.7775 10.125 3.1175 10.125 2.4375 10.125 C2.4375 8.145 2.4375 6.165 2.4375 4.125 C0.36196352 3.5715236 -1.40615964 3.125 -3.5625 3.125 C-4.3003173 7.79784289 -3.07584564 10.15568179 -0.5625 13.9375 C2.11451863 18.14968098 3.26002126 21.14751218 2.90625 26.14453125 C2.18123695 29.20771138 0.69691786 30.99848907 -1.5625 33.125 C-4.25914208 34.47332104 -6.42837521 34.29410682 -9.4375 34.3125 C-10.48679688 34.32667969 -11.53609375 34.34085938 -12.6171875 34.35546875 C-15.49797071 34.13004937 -17.12490208 33.61464317 -19.5625 32.125 C-19.19326923 25.725 -19.19326923 25.725 -16 22.6875 C-15.195625 22.171875 -14.39125 21.65625 -13.5625 21.125 C-12.02804906 24.19390187 -13.01265711 26.82594266 -13.5625 30.125 C-10.76204954 30.98150653 -10.76204954 30.98150653 -7.5625 31.125 C-4.97916667 29.70833333 -4.97916667 29.70833333 -3.5625 27.125 C-3.46920774 23.02014042 -4.86234222 20.5037728 -7.0625 17.1875 C-9.48486993 13.49761092 -10.5625 10.63669615 -10.5625 6.125 C-8.00015559 0.51224557 -5.9152425 -0.01542436 0 0 Z " fill="#AA5B68" transform="translate(141.5625,107.875)"></path>
<path d="M0 0 C-0.64866872 4.26840036 -2.14450637 7.77272418 -3.9375 11.6875 C-6.47209009 17.36144028 -8.17584322 22.83303378 -9 29 C-8.2575 28.525625 -7.515 28.05125 -6.75 27.5625 C-4.38949985 26.22130673 -2.63351523 25.487688 0 25 C-1.57260188 28.86002281 -3.75115506 31.40092405 -7 34 C-10.75 34.375 -10.75 34.375 -14 34 C-15 33 -15 33 -15.21875 29.46875 C-15.16077861 24.83103865 -13.99322784 20.858611 -12.5 16.5 C-12.26152344 15.77296875 -12.02304688 15.0459375 -11.77734375 14.296875 C-11.19539824 12.52776065 -10.59919543 10.76334654 -10 9 C-11.32 9 -12.64 9 -14 9 C-10.23068815 3.78095282 -6.67897187 0 0 0 Z " fill="#AA5B68" transform="translate(167,108)"></path>
<path d="M0 0 C0.99 0 1.98 0 3 0 C1.37815499 3.58513106 -0.79256239 6.58992323 -3.125 9.75 C-3.84945312 10.73484375 -4.57390625 11.7196875 -5.3203125 12.734375 C-5.87460938 13.48203125 -6.42890625 14.2296875 -7 15 C-7.66 14.67 -8.32 14.34 -9 14 C-8.47929737 9.86330684 -7.3269206 7.78546392 -4.5 4.75 C-3.8709375 4.06421875 -3.241875 3.3784375 -2.59375 2.671875 C-1.73729192 1.77343369 -0.87770076 0.87770076 0 0 Z " fill="#AA5B68" transform="translate(174,88)"></path>
</svg><style>@media (prefers-color-scheme: light) { :root { filter: none; } }
@media (prefers-color-scheme: dark) { :root { filter: none; } }
</style></svg>