<?xml version="1.0" encoding="UTF-8"?>
<svg id="Laag_1" xmlns="http://www.w3.org/2000/svg" version="1.1" viewBox="0 0 70 70">
  <!-- Generator: Adobe Illustrator 29.5.0, SVG Export Plug-In . SVG Version: 2.1.0 Build 137)  -->
  <path d="M4.7,33.7h45.2c1.8,0,3.8.1,6,.2,2.2,0,4.2.1,6,.2l1.4,1-1.4,1c-1.9,0-3.9.1-6,.2-2.2,0-4.2,0-6,0H4.7c0,0,0-2.6,0-2.6ZM34.5,8.1l2.3-1.6c2.8,4,5.6,7.6,8.4,10.8,2.9,3.3,5.9,6.3,9.1,9.1,3.2,2.8,6.8,5.7,10.6,8.5v.2c-3.9,2.8-7.5,5.6-10.7,8.5-3.2,2.8-6.3,5.8-9.1,9.1-2.9,3.2-5.7,6.8-8.5,10.9l-2.3-1.6c2.3-3.2,4.7-6.2,7.1-8.9,2.5-2.8,4.9-5.3,7.4-7.6,2.4-2.3,4.9-4.4,7.2-6.2,2.4-1.8,4.7-3.3,6.9-4.5v.7c-2.2-1.2-4.5-2.7-6.9-4.5-2.4-1.8-4.8-3.9-7.2-6.2-2.4-2.3-4.9-4.9-7.3-7.6-2.5-2.8-4.8-5.8-7.1-8.9Z"/>
</svg>